<svg width="28" height="22" viewBox="0 0 28 22" fill="none" xmlns="http://www.w3.org/2000/svg">
<path d="M2 8.66667C2 7.19391 3.19391 6 4.66667 6H6.22223C7.29876 6 8.26971 5.35269 8.68376 4.35897L8.98291 3.64103C9.39696 2.64731 10.3679 2 11.4444 2H16.5556C17.6321 2 18.6031 2.64731 19.0171 3.64103L19.3163 4.35897C19.7303 5.35269 20.7012 6 21.7777 6H23.3333C24.8061 6 26 7.19391 26 8.66667V18C26 19.4728 24.8061 20.6667 23.3333 20.6667H4.66667C3.19391 20.6667 2 19.4728 2 18V8.66667Z" stroke="white" stroke-width="2.25" stroke-linecap="round"/>
<path d="M18 12.667C18 14.8762 16.2092 16.667 14 16.667C11.7908 16.667 10 14.8762 10 12.667C10 10.4578 11.7908 8.66699 14 8.66699C16.2092 8.66699 18 10.4578 18 12.667Z" stroke="white" stroke-width="2.25" stroke-linecap="round"/>
</svg>
