<svg xmlns="http://www.w3.org/2000/svg" width="15" height="15" viewBox="10 14 16 18" fill="none">
  <path d="M24.1474 19.8988V23.4931C24.1474 23.7267 24.1383 23.9513 24.1113 24.167C23.9041 26.5931 22.4716 27.7971 19.8318 27.7971H19.4714C19.2461 27.7971 19.0299 27.905 18.8947 28.0847L17.8136 29.5224C17.3361 30.1603 16.5613 30.1603 16.0838 29.5224L15.0026 28.0847C14.8855 27.9319 14.6242 27.7971 14.426 27.7971H14.0656C11.1915 27.7971 9.75 27.0873 9.75 23.4931V19.8988C9.75 17.2661 10.9663 15.8373 13.3899 15.6307C13.6061 15.6037 13.8314 15.5947 14.0656 15.5947H19.8318C22.7058 15.5947 24.1474 17.0324 24.1474 19.8988Z" stroke="#7D8695" stroke-width="1.5"/>
  <path d="M16.9478 22.7821C16.4433 22.7821 16.0469 22.3777 16.0469 21.8835C16.0469 21.3893 16.4523 20.985 16.9478 20.985C17.4434 20.985 17.8488 21.3893 17.8488 21.8835C17.8488 22.3777 17.4524 22.7821 16.9478 22.7821Z" fill="#666666"/>
  <path d="M20.1041 22.7821C19.5995 22.7821 19.2031 22.3777 19.2031 21.8835C19.2031 21.3893 19.6086 20.985 20.1041 20.985C20.5996 20.985 21.005 21.3893 21.005 21.8835C21.005 22.3777 20.5996 22.7821 20.1041 22.7821Z" fill="#666666"/>
  <path d="M13.8033 22.7821C13.2988 22.7821 12.9023 22.3777 12.9023 21.8835C12.9023 21.3893 13.3078 20.985 13.8033 20.985C14.2988 20.985 14.7043 21.3893 14.7043 21.8835C14.7043 22.3777 14.2988 22.7821 13.8033 22.7821Z" fill="#666666"/>
</svg>