<svg xmlns="http://www.w3.org/2000/svg" width="25" height="28" viewBox="0 0 25 28" fill="none">
  <path d="M12.6498 14.0163L12.6483 17.6163M12.6498 14.0163L15.7299 12.2855M12.6498 14.0163L9.57123 12.2828M23.319 8.02085L20.239 9.75165M23.319 8.02085L23.3175 11.6208M23.319 8.02085L20.2405 6.28741M5.06064 18.2809L1.98058 20.0117M1.98058 20.0117L5.05916 21.7452M1.98058 20.0117L1.98212 16.4117M1.98571 8.01172L5.06429 9.74516M1.98571 8.01172L5.06577 6.28092M1.98571 8.01172L1.98417 11.6117M20.2353 18.2874L23.3139 20.0208M23.3139 20.0208L20.2338 21.7517M23.3139 20.0208L23.3154 16.4208M12.6549 2.01628L12.6534 5.61628M12.6549 2.01628L9.57477 3.74709M12.6549 2.01628L15.7337 3.74972M12.6462 22.4163L12.6447 26.0163M12.6447 26.0163L15.7247 24.2855M12.6447 26.0163L9.5661 24.2828" stroke="white" stroke-width="2.25" stroke-linecap="round"/>
</svg>