<svg width="19" height="17" viewBox="0 0 19 17" fill="none" xmlns="http://www.w3.org/2000/svg">
<path d="M16.1601 4.6171C17.4351 4.6171 18.4687 3.58352 18.4687 2.30855C18.4687 1.03357 17.4351 0 16.1601 0C14.8851 0 13.8516 1.03357 13.8516 2.30855C13.8516 3.58352 14.8851 4.6171 16.1601 4.6171Z" fill="#292D32"/>
<path d="M16.1601 4.6171C17.4351 4.6171 18.4687 3.58352 18.4687 2.30855C18.4687 1.03357 17.4351 0 16.1601 0C14.8851 0 13.8516 1.03357 13.8516 2.30855C13.8516 3.58352 14.8851 4.6171 16.1601 4.6171Z" fill="#DF525B"/>
<path d="M17.2864 5.82698C16.64 6.03014 15.929 6.06707 15.1903 5.88239C13.9529 5.55919 12.9463 4.57113 12.6047 3.33375C12.4385 2.73353 12.4292 2.14254 12.5308 1.60695C12.6509 1.01597 12.2353 0.461914 11.6443 0.461914H4.6171C1.84684 0.461914 0 1.84704 0 5.07901V11.543C0 14.7749 1.84684 16.1601 4.6171 16.1601H13.8513C16.6216 16.1601 18.4684 14.7749 18.4684 11.543V6.70423C18.4684 6.09477 17.8774 5.63307 17.2864 5.82698ZM12.4846 7.52607L11.395 8.39409C10.7855 8.8835 10.0099 9.12359 9.2342 9.12359C8.45853 9.12359 7.67362 8.8835 7.0734 8.39409L4.18309 6.08554C3.8876 5.84545 3.84143 5.40221 4.07228 5.10672C4.31237 4.81122 4.74638 4.75582 5.04187 4.9959L7.93218 7.30445C8.63398 7.86774 9.82519 7.86774 10.527 7.30445L11.6166 6.43644C11.9121 6.19635 12.3554 6.24252 12.5862 6.54725C12.8263 6.84274 12.7801 7.28599 12.4846 7.52607Z" fill="#F2BABD"/>
</svg>
