<svg width="64" height="64" viewBox="0 0 64 64" fill="none" xmlns="http://www.w3.org/2000/svg">
<path d="M31.61 63.2332C49.0677 63.2332 63.22 49.0809 63.22 31.6232C63.22 14.1655 49.0677 0.0131836 31.61 0.0131836C14.1523 0.0131836 0 14.1655 0 31.6232C0 49.0809 14.1523 63.2332 31.61 63.2332Z" fill="#ECECEC"/>
<path d="M36.9836 19.0132H33.2477C31.0307 19.0132 28.5648 20.0104 28.5648 23.4473C28.5756 24.6449 28.5648 25.7918 28.5648 27.0826H26V31.4474H28.6441V44.0132H33.5029V31.3645H36.7098L37 27.0703H33.4192C33.4192 27.0703 33.4272 25.1601 33.4192 24.6053C33.4192 23.2471 34.7406 23.3249 34.8201 23.3249C35.4489 23.3249 36.6716 23.3269 36.9855 23.3249V19.0132H36.9836Z" fill="#666666"/>
</svg>
