<svg width="64" height="64" viewBox="0 0 64 64" fill="none" xmlns="http://www.w3.org/2000/svg">
<circle cx="31.6124" cy="31.6124" r="31.6124" fill="#ECECEC"/>
<path d="M31.3333 44.0129C26.1787 44.0129 22 39.6762 22 34.3266C22 30.5317 26.6968 24.2468 29.4267 20.9144C30.4255 19.6952 32.2412 19.6952 33.24 20.9144C35.9699 24.2468 40.6667 30.5317 40.6667 34.3266C40.6667 39.6762 36.488 44.0129 31.3333 44.0129ZM31.3333 44.0129C28.3878 44.0129 26 41.5022 26 38.405C26 36.5498 27.9135 33.667 29.4483 31.6531C30.4119 30.3886 32.2548 30.3886 33.2184 31.6531C34.7531 33.667 36.6667 36.5498 36.6667 38.405C36.6667 41.5022 34.2788 44.0129 31.3333 44.0129Z" stroke="#666666" stroke-width="2.25" stroke-linecap="round"/>
</svg>
