<svg width="64" height="64" viewBox="0 0 64 64" fill="none" xmlns="http://www.w3.org/2000/svg">
<path d="M31.8307 0.000701904C49.2883 0.000701904 63.4407 14.1526 63.4407 31.6107C63.4407 49.0683 49.2883 63.2207 31.8307 63.2207C14.3731 63.2207 0.220703 49.0683 0.220703 31.6107C0.220703 14.1526 14.3731 0.000701904 31.8307 0.000701904Z" fill="url(#paint0_linear_609_2543)"/>
<path d="M31.7992 20.2209C28.6545 20.2209 28.2603 20.2342 27.0253 20.2906C25.7931 20.3467 24.9513 20.5423 24.2149 20.8287C23.4534 21.1245 22.8078 21.5204 22.164 22.1642C21.5202 22.8079 21.1244 23.4536 20.8285 24.2151C20.5425 24.9515 20.3466 25.793 20.2904 27.0255C20.2341 28.2607 20.2207 28.6547 20.2207 31.7994C20.2207 34.9439 20.2341 35.3384 20.2904 36.5733C20.3466 37.8055 20.5425 38.6473 20.8285 39.3837C21.1244 40.1452 21.5202 40.7909 22.164 41.4344C22.8078 42.0781 23.4534 42.474 24.2149 42.7701C24.9513 43.0562 25.7931 43.2521 27.0253 43.3082C28.2603 43.3646 28.6545 43.3779 31.7992 43.3779C34.9437 43.3779 35.3379 43.3646 36.5729 43.3082C37.8054 43.2521 38.6472 43.0562 39.3836 42.7701C40.145 42.474 40.7907 42.0781 41.4345 41.4344C42.078 40.7909 42.4741 40.1452 42.7699 39.3837C43.056 38.6473 43.2519 37.8055 43.308 36.5733C43.3644 35.3384 43.3778 34.9439 43.3778 31.7994C43.3778 28.6549 43.3644 28.2607 43.308 27.0255C43.2519 25.793 43.056 24.9515 42.7699 24.2151C42.4741 23.4536 42.078 22.8079 41.4345 22.1642C40.7907 21.5204 40.145 21.1245 39.3836 20.8287C38.6472 20.5423 37.8054 20.3467 36.5729 20.2906C35.3379 20.2342 34.9437 20.2209 31.7992 20.2209ZM31.7992 22.3072C34.8908 22.3072 35.257 22.3189 36.4781 22.3745C37.6068 22.4262 38.2197 22.6148 38.6278 22.7733C39.1683 22.9834 39.5541 23.2343 39.9592 23.6394C40.3643 24.0445 40.6153 24.4303 40.8253 24.9705C40.9839 25.3786 41.1724 25.9916 41.2242 27.1206C41.2797 28.3416 41.2914 28.7078 41.2914 31.7994C41.2914 34.891 41.2797 35.2572 41.2242 36.4782C41.1724 37.6069 40.9839 38.2202 40.8253 38.628C40.6153 39.1685 40.3643 39.5543 39.9592 39.9594C39.5541 40.3645 39.1683 40.6154 38.6278 40.8255C38.2197 40.984 37.6068 41.1728 36.4781 41.2241C35.257 41.2799 34.8911 41.2916 31.7992 41.2916C28.7074 41.2916 28.3412 41.2799 27.1204 41.2241C25.9917 41.1728 25.3785 40.984 24.9706 40.8255C24.4301 40.6154 24.0443 40.3645 23.6392 39.9594C23.2341 39.5543 22.9832 39.1685 22.7732 38.628C22.6146 38.2202 22.4261 37.6069 22.3743 36.4782C22.3187 35.2572 22.307 34.891 22.307 31.7994C22.307 28.7078 22.3187 28.3416 22.3743 27.1206C22.4261 25.9916 22.6146 25.3786 22.7732 24.9705C22.9832 24.4303 23.2338 24.0445 23.6392 23.6394C24.0443 23.2343 24.4301 22.9834 24.9706 22.7733C25.3785 22.6148 25.9917 22.4262 27.1204 22.3745C28.3415 22.3189 28.7076 22.3072 31.7992 22.3072Z" fill="white"/>
<path d="M31.7992 35.6581C29.6676 35.6581 27.9396 33.93 27.9396 31.7985C27.9396 29.667 29.6676 27.9389 31.7992 27.9389C33.9307 27.9389 35.6588 29.667 35.6588 31.7985C35.6588 33.93 33.9307 35.6581 31.7992 35.6581ZM31.7992 25.8528C28.5155 25.8528 25.8535 28.5148 25.8535 31.7985C25.8535 35.0822 28.5155 37.7441 31.7992 37.7441C35.0828 37.7441 37.7448 35.0822 37.7448 31.7985C37.7448 28.5148 35.0828 25.8528 31.7992 25.8528Z" fill="white"/>
<path d="M39.3704 25.6184C39.3704 26.3858 38.7484 27.0078 37.9812 27.0078C37.2138 27.0078 36.5918 26.3858 36.5918 25.6184C36.5918 24.8509 37.2138 24.229 37.9812 24.229C38.7484 24.229 39.3704 24.8509 39.3704 25.6184Z" fill="white"/>
<defs>
<linearGradient id="paint0_linear_609_2543" x1="0.220703" y1="31.6107" x2="63.4407" y2="31.6107" gradientUnits="userSpaceOnUse">
<stop stop-color="#F9785E"/>
<stop offset="1" stop-color="#E1565B"/>
</linearGradient>
</defs>
</svg>
