<svg width="18" height="18" viewBox="0 0 18 18" fill="none" xmlns="http://www.w3.org/2000/svg">
<path fill-rule="evenodd" clip-rule="evenodd" d="M4.09766 6.51301C4.09766 6.06114 4.46397 5.69482 4.91584 5.69482H13.0813C13.5331 5.69482 13.8995 6.06114 13.8995 6.51301C13.8995 6.96488 13.5331 7.33119 13.0813 7.33119H4.91584C4.46397 7.33119 4.09766 6.96488 4.09766 6.51301Z" fill="#7D8695"/>
<path fill-rule="evenodd" clip-rule="evenodd" d="M8.99787 4.31958C9.44974 4.31958 9.81605 4.68589 9.81605 5.13776V6.5123C9.81605 6.96417 9.44974 7.33048 8.99787 7.33048C8.546 7.33048 8.17969 6.96417 8.17969 6.5123V5.13776C8.17969 4.68589 8.546 4.31958 8.99787 4.31958Z" fill="#7D8695"/>
<path fill-rule="evenodd" clip-rule="evenodd" d="M11.0483 5.67871C11.5002 5.67871 11.8665 6.04502 11.8665 6.49689C11.8665 10.4388 8.77871 13.6805 4.91193 13.6805C4.46006 13.6805 4.09375 13.3142 4.09375 12.8623C4.09375 12.4105 4.46006 12.0441 4.91193 12.0441C7.8197 12.0441 10.2301 9.59135 10.2301 6.49689C10.2301 6.04502 10.5964 5.67871 11.0483 5.67871Z" fill="#7D8695"/>
<path fill-rule="evenodd" clip-rule="evenodd" d="M8.87328 10.1905C9.23277 9.91673 9.74613 9.98621 10.0199 10.3457C10.8438 11.4275 11.9309 12.0441 13.0917 12.0441C13.5436 12.0441 13.9099 12.4104 13.9099 12.8623C13.9099 13.3142 13.5436 13.6805 13.0917 13.6805C11.3071 13.6805 9.77601 12.7262 8.7181 11.3371C8.44432 10.9777 8.5138 10.4643 8.87328 10.1905Z" fill="#7D8695"/>
<path fill-rule="evenodd" clip-rule="evenodd" d="M1.56919 1.56919C2.71815 0.420219 4.4193 0 6.54545 0H11.4545C13.5807 0 15.2818 0.420219 16.4308 1.56919C17.5798 2.71815 18 4.4193 18 6.54545V11.4545C18 13.5807 17.5798 15.2818 16.4308 16.4308C15.2818 17.5798 13.5807 18 11.4545 18H6.54545C4.4193 18 2.71815 17.5798 1.56919 16.4308C0.420219 15.2818 0 13.5807 0 11.4545V6.54545C0 4.4193 0.420219 2.71815 1.56919 1.56919ZM2.72627 2.72627C2.03433 3.41821 1.63636 4.5807 1.63636 6.54545V11.4545C1.63636 13.4193 2.03433 14.5818 2.72627 15.2737C3.41821 15.9657 4.5807 16.3636 6.54545 16.3636H11.4545C13.4193 16.3636 14.5818 15.9657 15.2737 15.2737C15.9657 14.5818 16.3636 13.4193 16.3636 11.4545V6.54545C16.3636 4.5807 15.9657 3.41821 15.2737 2.72627C14.5818 2.03433 13.4193 1.63636 11.4545 1.63636H6.54545C4.5807 1.63636 3.41821 2.03433 2.72627 2.72627Z" fill="#7D8695"/>
</svg>
