<svg xmlns="http://www.w3.org/2000/svg" width="20" height="22" viewBox="0 0 20 22" fill="none">
  <path d="M10 6C11.1046 6 12 5.10457 12 4C12 2.89543 11.1046 2 10 2C8.8954 2 8 2.89543 8 4C8 5.10457 8.8954 6 10 6ZM10 6V11M10 11H7.5M10 11H12.5M10 11L9.9999 20M9.9999 20C12.6171 20 14.9408 18.7432 16.4003 16.8003M9.9999 20C7.38279 20 5.05915 18.7433 3.59961 16.8003M4 16C4 16.5523 3.55228 17 3 17C2.44772 17 2 16.5523 2 16C2 15.4477 2.44772 15 3 15C3.55228 15 4 15.4477 4 16ZM18 16C18 16.5523 17.5523 17 17 17C16.4477 17 16 16.5523 16 16C16 15.4477 16.4477 15 17 15C17.5523 15 18 15.4477 18 16Z" stroke="white" stroke-width="2.25" stroke-linecap="round"/>
</svg>