<svg width="64" height="64" viewBox="0 0 64 64" fill="none" xmlns="http://www.w3.org/2000/svg">
<path d="M63.8821 31.6107C63.8821 49.0683 49.7297 63.2207 32.2721 63.2207C14.8145 63.2207 0.662109 49.0683 0.662109 31.6107C0.662109 14.1531 14.8145 0.000724792 32.2721 0.000724792C49.7297 0.000724792 63.8821 14.1531 63.8821 31.6107Z" fill="#ECECEC"/>
<path d="M33.6962 30.1793C33.9981 29.8401 34.2471 29.4955 34.5574 29.2031C35.5109 28.3044 36.6391 27.8508 37.956 27.8619C38.6799 27.8679 39.3956 27.9202 40.0933 28.1221C41.6895 28.5836 42.6171 29.6823 43.0593 31.2415C43.3911 32.4108 43.4521 33.6114 43.4543 34.8156C43.4586 37.356 43.447 39.8962 43.4524 42.4367C43.4529 42.6745 43.3865 42.7369 43.1522 42.7348C41.8437 42.7241 40.5346 42.7239 39.2261 42.7353C38.9959 42.7372 38.946 42.6658 38.9469 42.4484C38.9542 40.0311 38.9558 37.6141 38.9482 35.1967C38.946 34.5911 38.9076 33.9857 38.7376 33.3967C38.4246 32.3119 37.6481 31.7591 36.5115 31.8191C34.9595 31.9011 34.1525 32.6696 33.9547 34.2476C33.9073 34.6246 33.885 35.0017 33.8853 35.3814C33.8875 37.7323 33.8828 40.0831 33.8915 42.4337C33.8923 42.6683 33.8338 42.7375 33.5943 42.7353C32.2762 42.7236 30.9577 42.7249 29.6396 42.7342C29.4285 42.7358 29.3672 42.6789 29.3675 42.465C29.3735 37.811 29.3735 33.1567 29.3672 28.5024C29.3669 28.2722 29.4424 28.2188 29.6601 28.2205C30.9119 28.2297 32.164 28.2308 33.4156 28.2196C33.6461 28.2177 33.7055 28.2921 33.7003 28.5103C33.6875 29.0664 33.6962 29.623 33.6962 30.1793Z" fill="#666666"/>
<path d="M26.527 35.4984C26.527 37.8008 26.5232 40.1034 26.5324 42.406C26.5335 42.6619 26.4698 42.7392 26.205 42.7362C24.897 42.7218 23.5885 42.7254 22.2802 42.7343C22.0707 42.736 22.0075 42.6834 22.0078 42.4668C22.0141 37.8049 22.0135 33.143 22.0089 28.481C22.0086 28.2882 22.0555 28.2195 22.2604 28.2206C23.5874 28.2293 24.9147 28.2318 26.2417 28.2192C26.4967 28.2165 26.5316 28.3157 26.5311 28.5342C26.5248 30.8556 26.527 33.177 26.527 35.4984Z" fill="#666666"/>
<path d="M26.8883 23.6008C26.8894 25.0463 25.716 26.2241 24.274 26.2246C22.8499 26.2252 21.6668 25.0463 21.6621 23.6231C21.6572 22.1844 22.8399 20.9996 24.2791 21.0009C25.7086 21.0023 26.8866 22.1762 26.8883 23.6008Z" fill="#666666"/>
</svg>
