<svg width="17" height="17" viewBox="0 0 17 17" fill="none" xmlns="http://www.w3.org/2000/svg">
<path d="M13.4758 11.8975V13.0163C13.4758 13.7941 13.2049 14.4784 12.7309 14.9658C12.2598 15.4501 11.5589 15.7703 10.6384 15.7703H5.63231C4.71178 15.7703 4.01088 15.4501 3.53985 14.9658C3.06577 14.4784 2.79492 13.7941 2.79492 13.0163V11.8975H13.4758Z" stroke="#8F8F8F"/>
<path d="M13.4758 3.25396V10.897H2.79492V3.25396C2.79492 2.4762 3.06577 1.7919 3.53985 1.30446C4.01088 0.820152 4.71178 0.5 5.63231 0.5H10.6384C11.5589 0.5 12.2598 0.820152 12.7309 1.30446C13.2049 1.7919 13.4758 2.4762 13.4758 3.25396Z" stroke="#8F8F8F"/>
<path d="M0.625761 15.2536C0.283678 15.2536 0 14.9771 0 14.6435V1.6277C0 1.29416 0.283678 1.01758 0.625761 1.01758C0.967844 1.01758 1.25152 1.29416 1.25152 1.6277V14.6435C1.25152 14.9771 0.967844 15.2536 0.625761 15.2536Z" fill="#8F8F8F"/>
<path d="M15.6433 15.2536C15.3013 15.2536 15.0176 14.9771 15.0176 14.6435V1.6277C15.0176 1.29416 15.3013 1.01758 15.6433 1.01758C15.9854 1.01758 16.2691 1.29416 16.2691 1.6277V14.6435C16.2691 14.9771 15.9854 15.2536 15.6433 15.2536Z" fill="#8F8F8F"/>
</svg>
