<svg xmlns="http://www.w3.org/2000/svg" width="24" height="24" viewBox="0 0 24 24" fill="none">
  <path d="M12.4554 21.7491V13.6171M12.4554 21.7491C9.24745 21.7491 6.64686 19.1485 6.64686 15.9406V11.2937C6.64686 10.0105 7.68709 8.97029 8.97029 8.97029H15.9406C17.2238 8.97029 18.264 10.0105 18.264 11.2937V15.9406C18.264 19.1485 15.6634 21.7491 12.4554 21.7491ZM18.264 14.7789H22.33M6.64686 14.7789H2.58086M18.264 10.7129C21.5168 10.7129 22.33 8.00219 22.33 7.22771M17.6831 18.8449C20.9359 18.8449 21.7491 21.5555 21.7491 22.33M6.066 10.7129C2.8132 10.7129 2 8.00219 2 7.22771M7.22771 18.8449C3.97491 18.8449 3.16171 21.5555 3.16171 22.33M12.4554 2C9.88904 2 7.80857 4.08047 7.80857 6.64686V7.57623C7.80857 8.34614 8.43271 8.97029 9.20263 8.97029H15.7082C16.4781 8.97029 17.1023 8.34614 17.1023 7.57623V6.64686C17.1023 4.08047 15.0218 2 12.4554 2Z" stroke="white" stroke-width="2.25" stroke-linecap="round"/>
</svg>