<svg width="20" height="20" viewBox="0 0 20 20" fill="none" xmlns="http://www.w3.org/2000/svg">
<path fill-rule="evenodd" clip-rule="evenodd" d="M17.4855 2.51304C17.0364 2.06337 16.0315 1.75764 14.2595 2.3482L5.66758 5.21161C5.66736 5.21168 5.66781 5.21153 5.66758 5.21161C4.28779 5.67312 3.33135 6.18292 2.74046 6.67114C2.14597 7.16234 2.02424 7.53809 2.02424 7.757C2.02424 7.97559 2.14565 8.35053 2.73965 8.84029C3.3303 9.32728 4.28599 9.83516 5.66607 10.2943L8.21712 11.1445C8.51934 11.2452 8.75649 11.4823 8.85723 11.7845L9.70742 14.3345C10.1665 15.714 10.6752 16.6699 11.1629 17.2604C11.6533 17.8542 12.0293 17.9762 12.2492 17.9762C12.469 17.9762 12.845 17.8542 13.3355 17.2604C13.8231 16.6699 14.3316 15.7145 14.7907 14.335L17.6545 5.74556C17.6544 5.74584 17.6545 5.74528 17.6545 5.74556C18.2404 3.97355 17.9358 2.96393 17.4855 2.51304ZM18.9179 1.08303C20.1603 2.32704 20.2653 4.29813 19.5763 6.38102L16.7114 14.974C16.7114 14.9742 16.7115 14.9738 16.7114 14.974C16.2091 16.4833 15.6016 17.6951 14.8963 18.549C14.1937 19.3997 13.2995 20 12.2492 20C11.1988 20 10.3046 19.3997 9.602 18.549C8.89672 17.6951 8.28941 16.4838 7.78705 14.9745C7.787 14.9743 7.78711 14.9747 7.78705 14.9745L7.09691 12.9045L5.02696 12.2146C5.02679 12.2146 5.02713 12.2147 5.02696 12.2146C3.51768 11.7125 2.30584 11.1059 1.45179 10.4017C0.600992 9.70022 0 8.8071 0 7.757C0 6.70721 0.60067 5.81363 1.45097 5.11107C2.30478 4.40562 3.51601 3.7971 5.02545 3.29229L13.6193 0.428213C15.7035 -0.266372 17.6742 -0.162274 18.9179 1.08303Z" fill="url(#paint0_linear_180_1384)"/>
<path fill-rule="evenodd" clip-rule="evenodd" d="M12.4264 7.32102C12.8222 7.71565 12.8231 8.35637 12.4283 8.7521L8.80496 12.3849C8.41026 12.7806 7.76942 12.7815 7.37361 12.3869C6.97781 11.9923 6.97691 11.3516 7.37162 10.9558L10.995 7.32302C11.3897 6.92729 12.0305 6.92639 12.4264 7.32102Z" fill="url(#paint1_linear_180_1384)"/>
<defs>
<linearGradient id="paint0_linear_180_1384" x1="0.152905" y1="11.0714" x2="19.9388" y2="11.0714" gradientUnits="userSpaceOnUse">
<stop stop-color="#FB7C5F"/>
<stop offset="1" stop-color="#DF525B"/>
</linearGradient>
<linearGradient id="paint1_linear_180_1384" x1="7.11935" y1="10.157" x2="12.7065" y2="10.157" gradientUnits="userSpaceOnUse">
<stop stop-color="#FB7C5F"/>
<stop offset="1" stop-color="#DF525B"/>
</linearGradient>
</defs>
</svg>
