<svg width="83" height="93" viewBox="0 0 83 93" fill="none" xmlns="http://www.w3.org/2000/svg">
<path d="M35.2837 26.3416C30.1178 26.3416 25.918 30.5498 25.918 35.7261C25.918 40.8037 29.8812 44.9132 35.0471 45.091C35.2049 45.0712 35.3626 45.0712 35.4809 45.091C35.5203 45.091 35.5401 45.091 35.5795 45.091C35.5992 45.091 35.5992 45.091 35.6189 45.091C40.6666 44.9132 44.6298 40.8037 44.6495 35.7261C44.6495 30.5498 40.4497 26.3416 35.2837 26.3416Z" fill="#D2D2D2"/>
<path d="M45.2998 50.3446C39.7987 46.6698 30.8273 46.6698 25.2867 50.3446C22.7826 52.024 21.4023 54.296 21.4023 56.7261C21.4023 59.1562 22.7826 61.4085 25.267 63.0681C28.0274 64.9253 31.6554 65.8539 35.2834 65.8539C38.9114 65.8539 42.5394 64.9253 45.2998 63.0681C47.7842 61.3888 49.1644 59.1365 49.1644 56.6866C49.1447 54.2565 47.7842 52.0042 45.2998 50.3446Z" fill="#666666"/>
<path d="M56.9532 36.8929C57.2687 40.7258 54.5477 44.0845 50.7817 44.5389C50.7619 44.5389 50.7619 44.5389 50.7422 44.5389H50.6831C50.5648 44.5389 50.4465 44.5389 50.3479 44.5784C48.4353 44.6772 46.6804 44.0647 45.3594 42.9385C47.3903 41.1209 48.5536 38.3944 48.317 35.4309C48.179 33.8306 47.6269 32.3685 46.7987 31.1238C47.548 30.7485 48.4156 30.5114 49.3029 30.4324C53.1675 30.0965 56.618 32.981 56.9532 36.8929Z" fill="#D2D2D2"/>
<path d="M60.8989 55.1656C60.7412 57.0821 59.5187 58.7417 57.4681 59.8678C55.4963 60.9544 53.012 61.4681 50.5473 61.4089C51.9669 60.1247 52.7951 58.5243 52.9528 56.8252C53.15 54.3754 51.9867 52.0243 49.66 50.1474C48.3389 49.1002 46.801 48.2704 45.125 47.658C49.4825 46.3935 54.964 47.2431 58.3357 49.9695C60.1497 51.4316 61.0764 53.269 60.8989 55.1656Z" fill="#666666"/>
</svg>
