<svg xmlns="http://www.w3.org/2000/svg" width="22" height="28" viewBox="0 0 22 28" fill="none">
  <path d="M11.3333 26.0129C6.17868 26.0129 2 21.6762 2 16.3266C2 12.5317 6.69681 6.2468 9.42667 2.91439C10.4255 1.6952 12.2412 1.6952 13.24 2.91439C15.9699 6.2468 20.6667 12.5317 20.6667 16.3266C20.6667 21.6762 16.488 26.0129 11.3333 26.0129ZM11.3333 26.0129C8.38781 26.0129 6 23.5022 6 20.405C6 18.5498 7.91355 15.667 9.44827 13.6531C10.4119 12.3886 12.2548 12.3886 13.2184 13.6531C14.7531 15.667 16.6667 18.5498 16.6667 20.405C16.6667 23.5022 14.2788 26.0129 11.3333 26.0129Z" stroke="white" stroke-width="2.25" stroke-linecap="round"/>
</svg>