<svg xmlns="http://www.w3.org/2000/svg" width="29" height="28" viewBox="0 0 29 28" fill="none">
  <path d="M14.687 3.90451L14.6881 1.23784M24.6827 13.9088L27.3494 13.9099M21.7508 20.9786L23.6356 22.865M14.6773 26.5712L14.6784 23.9045M2.01606 13.8991L4.68273 13.9002M5.72988 4.944L7.61469 6.83042M7.60861 20.9723L5.72219 22.8571M23.6432 4.95176L21.7568 6.83658M20.0161 13.9068C20.0148 16.8523 17.6259 19.2391 14.6804 19.2378C11.7349 19.2366 9.34813 16.8477 9.3494 13.9022C9.35066 10.9567 11.7395 8.56992 14.685 8.57118C17.6305 8.57244 20.0173 10.9613 20.0161 13.9068Z" stroke="white" stroke-width="2.25" stroke-linecap="round"/>
</svg>