<svg width="64" height="64" viewBox="0 0 64 64" fill="none" xmlns="http://www.w3.org/2000/svg">
<path fill-rule="evenodd" clip-rule="evenodd" d="M63.6614 31.6102C63.6614 49.0678 49.5095 63.2202 32.0514 63.2202C14.5933 63.2202 0.441406 49.0678 0.441406 31.6102C0.441406 14.1521 14.5933 0.000213623 32.0514 0.000213623C49.5095 0.000213623 63.6614 14.1521 63.6614 31.6102Z" fill="#ECECEC"/>
<path d="M27.9252 40.2202C36.9074 40.2202 41.8195 32.7792 41.8195 26.3268C41.8195 26.1154 41.814 25.9048 41.8058 25.6956C42.7594 25.0063 43.5876 24.1462 44.2414 23.1674C43.3669 23.5558 42.4243 23.818 41.438 23.9359C42.4461 23.3317 43.2198 22.3748 43.5848 21.2347C42.6395 21.7943 41.5961 22.201 40.4845 22.4201C39.5909 21.4709 38.3241 20.8773 36.9183 20.8773C34.2212 20.8773 32.0363 23.0641 32.0363 25.7599C32.0363 26.1432 32.0771 26.5159 32.1616 26.8733C28.1023 26.6692 24.5061 24.7262 22.0978 21.7717C21.6783 22.4928 21.4358 23.3316 21.4358 24.2258C21.4358 25.9201 22.2967 27.4155 23.6098 28.2905C22.8089 28.2657 22.0542 28.0456 21.3976 27.6794C21.3949 27.6999 21.3949 27.7203 21.3949 27.7418C21.3949 30.1068 23.0786 32.0812 25.3126 32.5291C24.9039 32.6405 24.4707 32.7007 24.0267 32.7007C23.7106 32.7007 23.4055 32.6696 23.1085 32.6127C23.7297 34.5527 25.5332 35.9645 27.6691 36.0043C25.9991 37.3139 23.8932 38.0944 21.6047 38.0944C21.2124 38.0944 20.8228 38.0721 20.4414 38.0268C22.6018 39.4116 25.1682 40.2202 27.9252 40.2202Z" fill="#666666"/>
</svg>
