<svg width="18" height="18" viewBox="0 0 18 18" fill="none" xmlns="http://www.w3.org/2000/svg">
<path fill-rule="evenodd" clip-rule="evenodd" d="M2.86506 6.72461C3.31694 6.72461 3.68325 7.09092 3.68325 7.5428V14.7265C3.68325 15.5302 3.79788 15.865 3.94104 16.0286C4.06057 16.1652 4.36744 16.3629 5.31963 16.3629H12.6833C13.6355 16.3629 13.9424 16.1652 14.0619 16.0286C14.2051 15.865 14.3197 15.5302 14.3197 14.7265V7.5428C14.3197 7.09092 14.686 6.72461 15.1379 6.72461C15.5898 6.72461 15.9561 7.09092 15.9561 7.5428V14.7265C15.9561 15.5591 15.8662 16.4516 15.2934 17.1062C14.697 17.7878 13.7766 17.9992 12.6833 17.9992H5.31963C4.22635 17.9992 3.30594 17.7878 2.70955 17.1062C2.1368 16.4516 2.04688 15.5591 2.04688 14.7265V7.5428C2.04688 7.09092 2.41319 6.72461 2.86506 6.72461Z" fill="#8F8F8F"/>
<path fill-rule="evenodd" clip-rule="evenodd" d="M2.01038 2.01038C1.80884 2.21191 1.63638 2.58069 1.63638 3.27275V4.90913C1.63638 5.6012 1.80884 5.96997 2.01038 6.17151C2.21191 6.37305 2.58069 6.54551 3.27275 6.54551H14.7274C15.4195 6.54551 15.7882 6.37305 15.9898 6.17151C16.1913 5.96997 16.3638 5.6012 16.3638 4.90913V3.27275C16.3638 2.58069 16.1913 2.21191 15.9898 2.01038C15.7882 1.80884 15.4195 1.63638 14.7274 1.63638H3.27275C2.58069 1.63638 2.21191 1.80884 2.01038 2.01038ZM0.853283 0.853283C1.46994 0.236631 2.32845 0 3.27275 0H14.7274C15.6717 0 16.5302 0.236631 17.1469 0.853283C17.7635 1.46994 18.0001 2.32845 18.0001 3.27275V4.90913C18.0001 5.85344 17.7635 6.71195 17.1469 7.3286C16.5302 7.94526 15.6717 8.18189 14.7274 8.18189H3.27275C2.32845 8.18189 1.46994 7.94526 0.853283 7.3286C0.236631 6.71195 0 5.85344 0 4.90913V3.27275C0 2.32845 0.236631 1.46994 0.853283 0.853283Z" fill="#8F8F8F"/>
<path fill-rule="evenodd" clip-rule="evenodd" d="M6.69531 10.6365C6.69531 10.1847 7.06163 9.81836 7.5135 9.81836H10.4917C10.9436 9.81836 11.3099 10.1847 11.3099 10.6365C11.3099 11.0884 10.9436 11.4547 10.4917 11.4547H7.5135C7.06163 11.4547 6.69531 11.0884 6.69531 10.6365Z" fill="#8F8F8F"/>
</svg>
