<svg width="28" height="28" viewBox="0 0 28 28" fill="none" xmlns="http://www.w3.org/2000/svg">
<path opacity="0.4" d="M6.48205 28H21.518C25.4778 28 27.056 25.634 27.2425 22.75L27.9886 11.186C28.1894 8.162 25.7217 5.6 22.6083 5.6C21.7332 5.6 20.9297 5.11 20.528 4.354L19.495 2.324C18.835 1.05 17.1133 0 15.6499 0H12.3644C10.8867 0 9.16498 1.05 8.50501 2.324L7.47201 4.354C7.07029 5.11 6.26684 5.6 5.39166 5.6C2.27831 5.6 -0.189412 8.162 0.0114491 11.186L0.757505 22.75C0.929672 25.634 2.52221 28 6.48205 28Z" fill="white"/>
<path d="M15.726 10.3621H12.2827C11.8121 10.3621 11.4219 9.98133 11.4219 9.52213C11.4219 9.06293 11.8121 8.68213 12.2827 8.68213H15.726C16.1966 8.68213 16.5869 9.06293 16.5869 9.52213C16.5869 9.98133 16.1966 10.3621 15.726 10.3621Z" fill="white"/>
<path d="M13.9967 20.8643C16.1393 20.8643 17.8762 19.1694 17.8762 17.0787C17.8762 14.988 16.1393 13.2931 13.9967 13.2931C11.8541 13.2931 10.1172 14.988 10.1172 17.0787C10.1172 19.1694 11.8541 20.8643 13.9967 20.8643Z" fill="white"/>
</svg>
